<svg width="10" height="20" viewBox="0 0 10 20" fill="none" xmlns="http://www.w3.org/2000/svg">
<path fill-rule="evenodd" clip-rule="evenodd" d="M2.5019 9.9079V19.1795C2.5019 19.3134 2.60806 19.4195 2.74217 19.4195H6.18986C6.32397 19.4195 6.43013 19.3134 6.43013 19.1795V9.75719H8.92789C9.05082 9.75719 9.15698 9.6623 9.16816 9.53391L9.40844 6.6983C9.41961 6.55875 9.30785 6.43595 9.16816 6.43595H6.43013V4.42088C6.43013 3.94641 6.81569 3.56684 7.28507 3.56684H9.21286C9.34697 3.56684 9.45314 3.46079 9.45314 3.32682V0.485628C9.45314 0.351662 9.34697 0.245605 9.21286 0.245605H5.96076C4.04972 0.245605 2.5019 1.7918 2.5019 3.70081V6.43595H0.780849C0.646742 6.43595 0.540573 6.54201 0.540573 6.67597V9.51158C0.540573 9.64555 0.646742 9.75161 0.780849 9.75161H2.5019V9.9079Z" fill="#2F4563"/>
</svg>
