<svg width="21" height="20" viewBox="0 0 21 20" fill="none" xmlns="http://www.w3.org/2000/svg">
<path d="M15.2771 3.68406C14.6289 3.68406 14.0981 4.20876 14.0981 4.86185C14.0981 5.50935 14.6233 6.03963 15.2771 6.03963C15.9253 6.03963 16.4561 5.51493 16.4561 4.86185C16.4561 4.20876 15.9253 3.68406 15.2771 3.68406ZM10.0413 5.19118C7.31445 5.19118 5.09609 7.4072 5.09609 10.1312C5.09609 12.8551 7.31445 15.0712 10.0413 15.0712C12.7682 15.0712 14.9865 12.8551 14.9865 10.1312C14.9865 7.4072 12.7682 5.19118 10.0413 5.19118ZM10.0413 13.2905C8.29232 13.2905 6.87301 11.8727 6.87301 10.1256C6.87301 8.37845 8.29232 6.96065 10.0413 6.96065C11.7903 6.96065 13.2096 8.37845 13.2096 10.1256C13.2096 11.8727 11.7903 13.2905 10.0413 13.2905ZM20.0211 6.02289C20.0211 2.69606 17.3222 0 13.9919 0H6.02925C2.69891 0 0 2.69606 0 6.02289V13.9715C0 17.3039 2.69891 20 6.02925 20H13.9863C17.3166 20 20.0155 17.3039 20.0155 13.9771V6.02289H20.0211ZM18.1325 13.9771C18.1325 16.2601 16.2773 18.1133 13.9919 18.1133H6.02925C3.74384 18.1133 1.88868 16.2601 1.88868 13.9771V6.02289C1.88868 3.73988 3.74384 1.88669 6.02925 1.88669H13.9863C16.2717 1.88669 18.1269 3.73988 18.1269 6.02289V13.9771H18.1325Z" fill="#2F4563"/>
</svg>
