
<svg width="17" height="12" viewBox="0 0 17 12" fill="none" xmlns="http://www.w3.org/2000/svg">
<path d="M16.6666 5.01296V10.9744C16.6666 11.1196 16.5493 11.2424 16.3984 11.2424H13.3195C13.1743 11.2424 13.0513 11.1252 13.0513 10.9744V5.43161C13.0513 3.97473 12.5317 2.97556 11.2185 2.97556C10.2183 2.97556 9.626 3.64539 9.36337 4.29848C9.26838 4.53292 9.24602 4.85109 9.24602 5.18042V10.98C9.24602 11.1252 9.12868 11.248 8.97781 11.248H5.89892C5.75363 11.248 5.6307 11.1307 5.6307 10.98C5.63629 9.5064 5.66982 2.33923 5.63629 0.65907C5.6307 0.508359 5.75364 0.391138 5.90451 0.391138H8.97781C9.12309 0.391138 9.24602 0.508359 9.24602 0.65907V1.93175C9.24043 1.94291 9.22926 1.95407 9.22367 1.96524H9.24602V1.93175C9.72657 1.19493 10.5815 0.139952 12.5037 0.139952C14.8841 0.128789 16.6666 1.68056 16.6666 5.01296ZM0.283167 11.2424H3.36205C3.50733 11.2424 3.63026 11.1252 3.63026 10.9744V0.647906C3.63026 0.502777 3.51292 0.379975 3.36205 0.379975H0.283167C0.137884 0.379975 0.014946 0.497195 0.014946 0.647906V10.9744C0.0205338 11.1252 0.137884 11.2424 0.283167 11.2424Z" fill="#2F4563"/>
</svg>
