<svg width="20" height="16" viewBox="0 0 20 16" fill="none" xmlns="http://www.w3.org/2000/svg">
<path d="M19.0176 1.99663C18.4253 2.26456 17.7715 2.42644 17.1345 2.53249C17.4362 2.48225 17.8833 1.92964 18.0621 1.71195C18.3359 1.37145 18.5594 0.986301 18.6879 0.567658C18.7047 0.534166 18.7159 0.495093 18.6823 0.467183C18.6432 0.450438 18.6153 0.461601 18.5817 0.472765C17.8665 0.852335 17.1289 1.13143 16.341 1.3268C16.274 1.34354 16.2293 1.3268 16.1846 1.28772C16.1175 1.21516 16.0561 1.1426 15.989 1.08678C15.6593 0.80768 15.3017 0.584404 14.905 0.422528C14.3797 0.210415 13.8042 0.115523 13.2398 0.154596C12.6922 0.188088 12.1502 0.344381 11.664 0.601149C11.1723 0.857917 10.7364 1.20958 10.39 1.63939C10.0324 2.08036 9.76417 2.60506 9.63006 3.16325C9.50155 3.69911 9.50713 4.22939 9.59095 4.77084C9.60212 4.86015 9.59653 4.87131 9.51272 4.86015C6.43942 4.40243 3.88579 3.3028 1.8183 0.947228C1.72889 0.846754 1.6786 0.846753 1.60596 0.95281C0.700737 2.30922 1.14217 4.48616 2.27091 5.55789C2.42178 5.70302 2.57824 5.84257 2.74587 5.97095C2.68441 5.98211 1.93005 5.90397 1.25952 5.55789C1.17011 5.50207 1.12541 5.53556 1.11423 5.63604C1.10864 5.78117 1.11982 5.91513 1.13658 6.07701C1.30981 7.45016 2.26532 8.72283 3.56728 9.21962C3.72374 9.28661 3.89138 9.34243 4.05901 9.37034C3.76286 9.43732 3.45553 9.48198 2.60059 9.41499C2.49442 9.39266 2.45531 9.44848 2.49442 9.54896C3.13702 11.2961 4.51721 11.8152 5.55655 12.1055C5.69624 12.1278 5.83594 12.1278 5.97563 12.1613C5.97005 12.1725 5.95887 12.1725 5.95328 12.1836C5.61243 12.7083 4.41663 13.0935 3.86344 13.2888C2.85204 13.6405 1.75683 13.7968 0.689562 13.6963C0.516339 13.674 0.48281 13.674 0.438107 13.6963C0.393405 13.7242 0.432522 13.7633 0.4884 13.808C0.706325 13.9531 0.92425 14.0759 1.14776 14.1987C1.82389 14.5559 2.53354 14.8406 3.27113 15.0471C7.08202 16.0965 11.3791 15.3262 14.24 12.485C16.4863 10.2523 17.2742 7.17664 17.2742 4.09543C17.2742 3.97263 17.4195 3.90564 17.5033 3.84424C18.09 3.40327 18.5538 2.87857 18.9897 2.29247C19.0902 2.1585 19.0791 2.04128 19.0791 1.99663C19.0791 1.99105 19.0791 1.97988 19.0791 1.97988C19.0902 1.94639 19.0958 1.96314 19.0176 1.99663Z" fill="#2F4563"/>
</svg>
